<?xml version="1.0" encoding="utf-8"?>
<!-- Generator: Adobe Illustrator 18.1.0, SVG Export Plug-In . SVG Version: 6.00 Build 0)  -->
<svg version="1.1" xmlns="http://www.w3.org/2000/svg" xmlns:xlink="http://www.w3.org/1999/xlink" x="0px" y="0px"
	 viewBox="0 0 133.9 76" enable-background="new 0 0 133.9 76" xml:space="preserve">
<g id="White_background" display="none">
	<circle display="inline" fill="#FFFFFF" cx="32.7" cy="32.6" r="36.1"/>
	<circle display="inline" fill="#FFFFFF" cx="32.7" cy="32.6" r="36.1"/>
</g>
<g id="VAB">
	<g>
		<path fill="#FFCC00" d="M128.7,51.7h-13.3c0.6,1.4,0.9,2.9,0.9,4.4c0,3.3-1.3,6.8-4.3,9.2h22L128.7,51.7z"/>
	</g>
	<g>
		<path fill="#FFCC00" d="M14.9,25.8c0.1-0.3,0.2-0.6,0.4-0.9c0-0.1,0-0.1,0.1-0.2c0.1-0.3,0.3-0.6,0.4-0.8c0,0,0-0.1,0-0.1
			L4.6,15.9c-1.3,2.1-2.3,4.4-3.1,6.8L14.9,25.8C14.9,25.8,14.9,25.8,14.9,25.8z"/>
	</g>
	<g>
		<path fill="#FFCC00" d="M13.1,6.5c0.1-0.1,0.2-0.2,0.3-0.3C13.3,6.3,13.2,6.4,13.1,6.5z"/>
	</g>
	<g>
		<path fill="#FFCC00" d="M18.7,19.7c0,0,0.1-0.1,0.1-0.1c0.2-0.2,0.4-0.4,0.6-0.6c0,0,0.1-0.1,0.1-0.1c0.3-0.2,0.5-0.5,0.8-0.7
			L12.9,6.6c-2,1.5-3.8,3.2-5.4,5.1L18.7,19.7L18.7,19.7z"/>
	</g>
	<g>
		<path fill="#FFCC00" d="M16.7,22.3L16.7,22.3C16.7,22.4,16.7,22.3,16.7,22.3C16.7,22.3,16.7,22.3,16.7,22.3z"/>
	</g>
	<g>
		<path fill="#FFCC00" d="M13.6,33c0-0.1,0-0.1,0-0.2c0,0,0-0.1,0-0.1c0,0,0-0.1,0-0.1c0-0.2,0-0.5,0-0.7c0-0.1,0-0.1,0-0.2
			c0-0.3,0-0.5,0.1-0.8c0,0,0-0.1,0-0.1c0,0,0,0,0,0c0,0,0,0.1,0,0.1L0.4,27.5c0.1-0.5,0.2-1,0.3-1.5c-0.1,0.6-0.2,1.1-0.3,1.7
			C0,30.2-0.1,32.6,0.1,35L13.6,33L13.6,33z"/>
	</g>
	<g>
		<path fill="#FFCC00" d="M14,36.3C14,36.3,14,36.3,14,36.3C14,36.3,14,36.2,14,36.3C14,36.2,14,36.3,14,36.3z"/>
	</g>
	<g>
		<path fill="#FFCC00" d="M13.7,34.6C13.7,34.6,13.7,34.7,13.7,34.6C13.7,34.7,13.7,34.6,13.7,34.6L13.7,34.6z"/>
	</g>
	<g>
		<path fill="#FFCC00" d="M15.1,40c0-0.1,0-0.1-0.1-0.2c-0.1-0.3-0.2-0.5-0.3-0.8c0-0.1-0.1-0.2-0.1-0.3c-0.1-0.3-0.2-0.5-0.2-0.8
			c0,0,0-0.1,0-0.1c0,0,0,0,0,0.1l-13.6,2c0.6,2.4,1.4,4.8,2.5,7L15.1,40L15.1,40z"/>
	</g>
	<g>
		<path fill="#FFCC00" d="M16.6,4.2c0.1,0,0.1-0.1,0.2-0.1C16.7,4.1,16.7,4.2,16.6,4.2z"/>
	</g>
	<g>
		<path fill="#FFCC00" d="M26.6,14.6L24,1.2c-2.4,0.7-4.7,1.6-6.9,2.8l7.4,11.5C25.2,15.1,25.9,14.8,26.6,14.6z"/>
	</g>
	<g>
		<path fill="#FFCC00" d="M26.8,0.5c0.1,0,0.2,0,0.3-0.1C27.1,0.5,27,0.5,26.8,0.5z"/>
	</g>
	<g>
		<path fill="#FFCC00" d="M27.6,0.4c0.1,0,0.2,0,0.3,0C27.8,0.4,27.7,0.4,27.6,0.4z"/>
	</g>
	<g>
		<path fill="#FFCC00" d="M26,0.7c0.1,0,0.2-0.1,0.4-0.1C26.2,0.6,26.1,0.7,26,0.7z"/>
	</g>
	<g>
		<path fill="#FFCC00" d="M24.1,1.1c0.3-0.1,0.5-0.1,0.8-0.2C24.6,1,24.3,1.1,24.1,1.1z"/>
	</g>
	<g>
		<path fill="#FFCC00" d="M28.5,0.3c0.1,0,0.1,0,0.2,0C28.6,0.2,28.6,0.3,28.5,0.3z"/>
	</g>
	<g>
		<path fill="#FFCC00" d="M25,0.9c0.2,0,0.4-0.1,0.6-0.1C25.4,0.8,25.2,0.9,25,0.9z"/>
	</g>
	<g>
		<path fill="#FFCC00" d="M32.7,13.6c0.4,0,0.8,0,1.1,0l2.6-13.4c-2.5-0.3-5-0.3-7.4,0l2.6,13.5C31.9,13.6,32.3,13.6,32.7,13.6z"/>
	</g>
	<g>
		<path fill="#FFCC00" d="M38.1,0.5c0.5,0.1,1.1,0.2,1.6,0.3C39.2,0.7,38.7,0.6,38.1,0.5z"/>
	</g>
	<g>
		<path fill="#FFCC00" d="M14.3,5.6c0.4-0.3,0.9-0.6,1.4-0.9C15.2,5,14.8,5.3,14.3,5.6z"/>
	</g>
	<g>
		<path fill="#FFCC00" d="M44.3,65.3l-5.2-13.6h-6.4c-0.3,0-0.6,0-0.9,0c-0.1,0-0.1,0-0.2,0c-0.2,0-0.4,0-0.5,0
			c-0.4,0-0.7-0.1-1.1-0.1l-3.7,13.2c0.5,0.1,1,0.2,1.5,0.3c1.7,0.3,3.3,0.4,4.9,0.4v0H44.3z"/>
	</g>
	<g>
		<path fill="#FFCC00" d="M15.8,41.5L15.8,41.5C15.8,41.5,15.8,41.5,15.8,41.5C15.8,41.5,15.8,41.5,15.8,41.5z"/>
	</g>
	<g>
		<path fill="#FFCC00" d="M25.1,50.1c-0.1,0-0.2-0.1-0.3-0.1c-0.2-0.1-0.4-0.2-0.6-0.3c-0.1-0.1-0.2-0.1-0.3-0.2
			c-0.2-0.1-0.4-0.2-0.6-0.3c-0.1,0-0.1-0.1-0.2-0.1c0,0,0,0,0,0L14.7,60c-0.5-0.3-0.9-0.6-1.4-1c-0.4-0.3-0.8-0.6-1.2-0.9
			c2.7,2.2,5.8,4,9.2,5.2L25.1,50.1L25.1,50.1z"/>
	</g>
	<g>
		<path fill="#FFCC00" d="M11.9,57.9c-0.1-0.1-0.3-0.2-0.4-0.4C11.6,57.6,11.8,57.8,11.9,57.9z"/>
	</g>
	<g>
		<path fill="#FFCC00" d="M19.2,46.1c-0.1-0.1-0.2-0.2-0.3-0.3c-0.1-0.2-0.3-0.3-0.4-0.5c-0.1-0.1-0.2-0.2-0.2-0.3
			c-0.2-0.2-0.3-0.4-0.5-0.6c0,0-0.1-0.1-0.1-0.1L5.8,51.3c1.4,2,3.1,3.9,4.9,5.6L19.2,46.1C19.1,46.1,19.2,46.1,19.2,46.1z"/>
	</g>
	<g>
		<path fill="#FFCC00" d="M28.3,51.2C28.3,51.2,28.3,51.2,28.3,51.2C28.3,51.2,28.3,51.2,28.3,51.2C28.3,51.2,28.3,51.2,28.3,51.2z"
			/>
	</g>
	<g>
		<polygon fill="#FFCC00" points="16.7,43 16.7,43 16.7,43 		"/>
	</g>
	<g>
		<path fill="#FFCC00" d="M20.4,47.2C20.4,47.2,20.4,47.2,20.4,47.2C20.4,47.2,20.3,47.2,20.4,47.2C20.3,47.1,20.3,47.2,20.4,47.2z"
			/>
	</g>
	<g>
		<path fill="#FFCC00" d="M21.6,48.2C21.7,48.2,21.7,48.2,21.6,48.2C21.7,48.2,21.7,48.2,21.6,48.2C21.7,48.2,21.7,48.2,21.6,48.2z"
			/>
	</g>
	<g>
		<path fill="#FFCC00" d="M26.7,50.7C26.7,50.7,26.7,50.7,26.7,50.7C26.7,50.7,26.6,50.7,26.7,50.7C26.6,50.7,26.7,50.7,26.7,50.7z"
			/>
	</g>
	<g>
		<path fill="#FFCC00" d="M58.1,12.1c0.1,0.1,0.1,0.1,0.2,0.2C58.2,12.3,58.1,12.2,58.1,12.1z"/>
	</g>
	<g>
		<path fill="#FFCC00" d="M46.6,19.7l11.2-7.9c-1.6-1.9-3.4-3.6-5.3-5.2L45,18.2C45.6,18.7,46.1,19.2,46.6,19.7z"/>
	</g>
	<g>
		<path fill="#FFCC00" d="M51.6,31h13.7c-0.3-5.4-1.9-10.5-4.6-15l-11.2,7.9C50.7,26,51.4,28.4,51.6,31z"/>
	</g>
	<g>
		<path fill="#FFCC00" d="M40.8,15.5L48.3,4c-2.1-1.2-4.5-2.1-6.9-2.8l-2.6,13.4C39.5,14.9,40.1,15.1,40.8,15.5z"/>
	</g>
	<g>
		<path fill="#FFCC00" d="M40.9,1.1c0.1,0,0.2,0,0.3,0.1C41.1,1.1,41,1.1,40.9,1.1z"/>
	</g>
	<g>
		<path fill="#FFCC00" d="M48.4,4.1c0.1,0,0.1,0.1,0.2,0.1C48.6,4.1,48.5,4.1,48.4,4.1z"/>
	</g>
	<g>
		<path fill="#003A5D" d="M47.7,21l11.1-7.8l0,0c0,0,0,0,0,0c-0.2-0.3-0.4-0.6-0.6-0.8c-0.1-0.1-0.1-0.1-0.2-0.2
			c-0.1-0.1-0.2-0.2-0.2-0.3l0,0l-11.2,7.9C47,20.1,47.4,20.6,47.7,21z"/>
	</g>
	<g>
		<path fill="#FFFFFF" d="M47.7,21c0.3,0.4,0.7,0.9,1,1.4l11.1-7.8l0,0c0-0.1-0.1-0.1-0.1-0.2c-0.3-0.4-0.5-0.7-0.8-1.1
			c0,0,0-0.1-0.1-0.1l0,0L47.7,21z"/>
	</g>
	<g>
		<path fill="#003A5D" d="M48.7,22.4c0.3,0.5,0.6,1,0.8,1.5L60.7,16l0,0c-0.1-0.1-0.1-0.2-0.2-0.3c-0.2-0.3-0.4-0.6-0.6-0.9
			c-0.1-0.1-0.1-0.2-0.2-0.3l0,0L48.7,22.4z"/>
	</g>
	<g>
		<path fill="#003A5D" d="M42.3,16.2l7.4-11.4l0,0c0,0,0,0,0,0c-0.3-0.2-0.7-0.4-1-0.6c-0.1,0-0.1-0.1-0.2-0.1C48.4,4,48.3,4,48.3,4
			l0,0l-7.4,11.5C41.3,15.7,41.8,16,42.3,16.2z"/>
	</g>
	<g>
		<path fill="#FFFFFF" d="M42.3,16.2c0.5,0.3,1,0.6,1.4,0.9l7.4-11.4l0,0c0,0-0.1-0.1-0.1-0.1c-0.4-0.2-0.7-0.5-1.1-0.7
			c-0.1,0-0.1-0.1-0.2-0.1l0,0L42.3,16.2z"/>
	</g>
	<g>
		<path fill="#003A5D" d="M43.7,17.2c0.5,0.3,0.9,0.7,1.3,1l7.5-11.5l0,0c-0.1-0.1-0.2-0.1-0.2-0.2c-0.3-0.2-0.6-0.4-0.9-0.6
			c-0.1-0.1-0.2-0.1-0.2-0.2l0,0L43.7,17.2z"/>
	</g>
	<g>
		<path fill="#003A5D" d="M35.5,13.8l2.6-13.4v0c-0.2,0-0.3-0.1-0.5-0.1c-0.4-0.1-0.8-0.1-1.1-0.1v0l-2.6,13.4
			C34.4,13.7,34.9,13.7,35.5,13.8z"/>
	</g>
	<g>
		<path fill="#FFFFFF" d="M35.5,13.8c0.6,0.1,1.1,0.2,1.7,0.3l2.6-13.4v0c0,0,0,0,0,0c-0.5-0.1-1.1-0.2-1.6-0.3c0,0,0,0,0,0v0
			L35.5,13.8z"/>
	</g>
	<g>
		<path fill="#003A5D" d="M37.1,14.2c0.5,0.1,1.1,0.3,1.6,0.5l2.6-13.4l0,0c-0.1,0-0.1,0-0.2,0c-0.1,0-0.2,0-0.3-0.1
			c-0.4-0.1-0.8-0.2-1.2-0.3c0,0,0,0,0,0l0,0L37.1,14.2z"/>
	</g>
	<g>
		<path fill="#003A5D" d="M28.3,14.1L25.7,0.7c0,0,0,0-0.1,0c-0.2,0-0.4,0.1-0.6,0.1c-0.1,0-0.1,0-0.2,0c-0.3,0.1-0.5,0.1-0.8,0.2
			c0,0,0,0,0,0v0l2.6,13.5C27.2,14.4,27.7,14.3,28.3,14.1z"/>
	</g>
	<g>
		<path fill="#FFFFFF" d="M28.3,14.1c0.5-0.1,1.1-0.2,1.6-0.3L27.3,0.4c-0.1,0-0.1,0-0.2,0c-0.1,0-0.2,0-0.3,0.1
			c-0.2,0-0.3,0.1-0.5,0.1c-0.1,0-0.2,0-0.4,0.1c-0.1,0-0.2,0-0.3,0.1L28.3,14.1z"/>
	</g>
	<g>
		<path fill="#003A5D" d="M29.9,13.8c0.6-0.1,1.1-0.1,1.7-0.2L29,0.2l0,0c-0.1,0-0.2,0-0.3,0c-0.1,0-0.1,0-0.2,0
			c-0.2,0-0.4,0.1-0.6,0.1c-0.1,0-0.2,0-0.3,0c-0.1,0-0.2,0-0.3,0L29.9,13.8z"/>
	</g>
	<g>
		<path fill="#003A5D" d="M21.7,17.1L14.3,5.7l0,0c0,0,0,0-0.1,0c-0.3,0.2-0.5,0.4-0.8,0.6c-0.1,0.1-0.2,0.2-0.3,0.3
			c-0.1,0-0.1,0.1-0.2,0.1l0,0l7.4,11.5C20.8,17.8,21.2,17.5,21.7,17.1z"/>
	</g>
	<g>
		<path fill="#FFFFFF" d="M21.7,17.1c0.5-0.3,0.9-0.6,1.4-0.9L15.7,4.7l0,0c0,0,0,0,0,0c-0.5,0.3-0.9,0.6-1.4,0.9c0,0,0,0,0,0l0,0
			L21.7,17.1z"/>
	</g>
	<g>
		<path fill="#003A5D" d="M23.1,16.2c0.5-0.3,1-0.5,1.5-0.8L17.2,3.9l0,0C17,4,16.9,4,16.8,4.1c-0.1,0-0.1,0.1-0.2,0.1
			c-0.3,0.2-0.6,0.3-0.9,0.5l0,0l0,0L23.1,16.2z"/>
	</g>
	<g>
		<path fill="#003A5D" d="M15.8,23.8L15.8,23.8c0.1-0.2,0.2-0.4,0.4-0.6c0,0,0.1-0.1,0.1-0.1c0.1-0.2,0.2-0.4,0.3-0.5
			c0,0,0-0.1,0.1-0.1l0,0L5.5,14.5c-0.2,0.3-0.5,0.7-0.7,1.1c-0.1,0.1-0.1,0.2-0.2,0.3c0,0,0,0.1-0.1,0.1l0,0L15.8,23.8L15.8,23.8z"
			/>
	</g>
	<g>
		<path fill="#FFFFFF" d="M16.7,22.3L16.7,22.3C16.7,22.3,16.7,22.3,16.7,22.3c0.2-0.3,0.3-0.4,0.4-0.6c0-0.1,0.1-0.1,0.1-0.2
			c0.1-0.2,0.3-0.4,0.4-0.5c0,0,0,0,0-0.1l0,0L6.5,13.1c-0.3,0.4-0.6,0.8-0.9,1.3c0,0,0,0,0,0.1c0,0,0,0,0,0L16.7,22.3z"/>
	</g>
	<g>
		<path fill="#003A5D" d="M17.6,21L17.6,21C17.7,20.9,17.7,20.9,17.6,21c0.2-0.3,0.3-0.4,0.5-0.6c0.1-0.1,0.1-0.1,0.2-0.2
			c0.1-0.1,0.3-0.3,0.4-0.4c0,0,0,0,0-0.1l0,0L7.6,11.8l0,0c-0.1,0.1-0.1,0.1-0.2,0.2c-0.3,0.4-0.6,0.7-0.9,1.1L17.6,21z"/>
	</g>
	<g>
		<path fill="#003A5D" d="M13.7,30.7C13.7,30.7,13.7,30.7,13.7,30.7c0-0.4,0.1-0.7,0.1-0.9c0,0,0,0,0,0c0-0.2,0.1-0.5,0.1-0.7
			L0.7,25.9c0,0.1,0,0.1,0,0.2c-0.1,0.5-0.2,1-0.3,1.5L13.7,30.7z"/>
	</g>
	<g>
		<path fill="#FFFFFF" d="M14,29.1c0.1-0.6,0.2-1.1,0.4-1.6L1.1,24.3C1,24.4,1,24.6,1,24.8c-0.1,0.2-0.1,0.5-0.2,0.7
			c0,0.1-0.1,0.2-0.1,0.3L14,29.1z"/>
	</g>
	<g>
		<path fill="#003A5D" d="M14.4,27.4c0.1-0.3,0.2-0.5,0.2-0.8l0,0c0.1-0.3,0.2-0.5,0.3-0.8c0,0,0,0,0,0l0,0h0L1.6,22.6l0,0
			c-0.1,0.3-0.2,0.7-0.3,1c0,0.1-0.1,0.3-0.1,0.4c0,0.1,0,0.1-0.1,0.2L14.4,27.4z"/>
	</g>
	<g>
		<path fill="#003A5D" d="M14.4,37.9c0-0.1,0-0.1-0.1-0.2c0-0.1-0.1-0.3-0.1-0.4c-0.1-0.2-0.1-0.4-0.2-0.7c0,0,0-0.1,0-0.1
			c0,0,0-0.1,0-0.1c0,0,0,0,0,0l-13.5,2h0l0,0c0.1,0.5,0.2,1.1,0.3,1.6l0,0L14.4,37.9C14.4,37.9,14.4,37.9,14.4,37.9z"/>
	</g>
	<g>
		<path fill="#FFFFFF" d="M14,36.3C14,36.3,14,36.2,14,36.3c-0.1-0.3-0.1-0.5-0.1-0.7c0,0,0,0,0,0c0-0.3-0.1-0.6-0.1-0.9
			c0,0,0,0,0-0.1l-13.5,2c0,0.1,0,0.1,0,0.2c0,0.1,0,0.3,0.1,0.4c0.1,0.4,0.1,0.7,0.2,1.1l0,0h0L14,36.3z"/>
	</g>
	<g>
		<path fill="#003A5D" d="M13.7,34.6L13.7,34.6c-0.1-0.6-0.1-1.1-0.1-1.7l0,0L0.1,35l0,0c0,0.1,0,0.3,0,0.4c0,0.1,0,0.3,0,0.4
			c0,0.3,0.1,0.6,0.1,0.8L13.7,34.6z"/>
	</g>
	<g>
		<path fill="#003A5D" d="M17.7,44.4L17.7,44.4c0,0-0.1-0.1-0.1-0.1c-0.1-0.1-0.2-0.3-0.3-0.4c-0.1-0.1-0.1-0.2-0.2-0.3
			c-0.1-0.2-0.2-0.3-0.3-0.5c0,0,0-0.1-0.1-0.1l0,0L4.9,49.9h0c0,0,0,0.1,0.1,0.1c0.3,0.4,0.6,0.9,0.9,1.3c0,0,0,0,0,0l0,0
			L17.7,44.4L17.7,44.4z"/>
	</g>
	<g>
		<path fill="#FFFFFF" d="M16.7,43L16.7,43c0-0.1-0.1-0.1-0.1-0.2c-0.1-0.2-0.2-0.3-0.3-0.5c-0.1-0.1-0.1-0.2-0.2-0.4
			c-0.1-0.1-0.1-0.2-0.2-0.4c0,0,0-0.1,0-0.1l0,0L4.1,48.4h0c0,0,0,0.1,0,0.1c0.2,0.4,0.5,0.9,0.8,1.3c0,0,0,0,0,0h0L16.7,43z"/>
	</g>
	<g>
		<path fill="#003A5D" d="M15.8,41.5C15.8,41.5,15.8,41.5,15.8,41.5c-0.1-0.1-0.1-0.2-0.2-0.3c-0.1-0.1-0.1-0.3-0.2-0.4
			c-0.1-0.2-0.2-0.4-0.3-0.7c0,0,0-0.1,0-0.1c0,0,0,0,0,0l0,0L3.3,46.9h0c0,0,0,0,0,0c0.2,0.5,0.5,1,0.7,1.4c0,0,0,0,0,0h0
			L15.8,41.5z"/>
	</g>
	<g>
		<path fill="#003A5D" d="M21.7,48.2L13.3,59c0.5,0.3,0.9,0.7,1.4,1l8.4-10.8c0,0,0,0,0,0C23,49.1,23,49,22.9,49
			c-0.1-0.1-0.2-0.1-0.3-0.2c-0.2-0.1-0.3-0.2-0.5-0.3c-0.1,0-0.1-0.1-0.2-0.1C21.9,48.3,21.8,48.3,21.7,48.2
			C21.7,48.2,21.7,48.2,21.7,48.2z"/>
	</g>
	<g>
		<path fill="#FFFFFF" d="M21.7,48.2C21.7,48.2,21.7,48.2,21.7,48.2c-0.1-0.1-0.2-0.2-0.3-0.3c0,0-0.1-0.1-0.1-0.1
			c-0.2-0.2-0.5-0.3-0.7-0.5l0,0c-0.1,0-0.1-0.1-0.2-0.1c0,0,0,0,0,0L12,58c0.1,0,0.1,0.1,0.2,0.1c0.4,0.3,0.8,0.6,1.2,0.9
			L21.7,48.2z"/>
	</g>
	<g>
		<path fill="#003A5D" d="M20.4,47.2C20.3,47.2,20.3,47.1,20.4,47.2c-0.2-0.2-0.3-0.3-0.5-0.4l0,0c-0.2-0.2-0.4-0.4-0.7-0.6
			c0,0-0.1,0-0.1-0.1l-8.4,10.8l0,0c0.2,0.2,0.5,0.4,0.7,0.6c0.1,0.1,0.3,0.2,0.4,0.4c0,0,0.1,0.1,0.1,0.1L20.4,47.2z"/>
	</g>
	<g>
		<path fill="#003A5D" d="M29.2,51.4C29.1,51.4,29.1,51.3,29.2,51.4c-0.3-0.1-0.6-0.1-0.8-0.2c0,0,0,0,0,0l-3.7,13.1
			c0.5,0.1,1.1,0.3,1.6,0.4c0,0,0,0,0,0l0,0l3.7-13.2C29.7,51.5,29.4,51.4,29.2,51.4z"/>
	</g>
	<g>
		<path fill="#FFFFFF" d="M28.3,51.2C28.3,51.2,28.3,51.2,28.3,51.2c-0.5-0.1-1.1-0.3-1.6-0.4c0,0,0,0,0,0c0,0,0,0,0,0l-3.7,13.1
			l0,0c0.1,0,0.3,0.1,0.4,0.1c0.4,0.1,0.8,0.2,1.2,0.3L28.3,51.2z"/>
	</g>
	<g>
		<path fill="#003A5D" d="M26.7,50.7C26.7,50.7,26.6,50.7,26.7,50.7C26.6,50.7,26.6,50.7,26.7,50.7c-0.3-0.1-0.5-0.2-0.7-0.3
			c-0.1-0.1-0.3-0.1-0.4-0.2c-0.1,0-0.2-0.1-0.3-0.1c0,0-0.1,0-0.1,0l0,0l-3.7,13.2l0,0c0.3,0.1,0.6,0.2,0.9,0.3
			c0.2,0.1,0.5,0.2,0.7,0.2c0,0,0,0,0,0l0,0L26.7,50.7z"/>
	</g>
	<g>
		<path fill="#003A5D" d="M100.3,65.3h-9.8v-31h10c6.6,0,10.7,3.2,10.7,8.3c0,2.6-1,4.7-2.9,6.2c2.6,1.4,4.4,4.1,4.4,7.3
			C112.6,62,108.1,65.3,100.3,65.3L100.3,65.3z M96.4,59.6h4.4c0.9,0,5.6-0.2,5.6-3.7c0-2.6-1.9-3.9-5.5-3.9h-4.5V59.6L96.4,59.6z
			 M96.4,46.4h3.4c4.6,0,5.2-1.6,5.2-3.3c0-0.9,0-3-4.8-3h-3.7V46.4L96.4,46.4z"/>
	</g>
	<g>
		<polygon fill="#003A5D" points="53.2,65.3 48.2,65.3 36.3,34.3 42.9,34.3 50.8,55.5 59,34.3 65.4,34.3 53.2,65.3 		"/>
	</g>
	<g>
		<path fill="#003A5D" d="M88.3,65.3H83l-3-7H68.1l-2.6,7h-6.3l12.2-31h4.9l13.2,31H88.3z M70.2,52.6h7.4l-3.9-9.5L70.2,52.6
			L70.2,52.6z"/>
	</g>
	<g>
		<path fill="#FFCC00" d="M4.7,15.8c0.1-0.1,0.1-0.2,0.2-0.3C4.8,15.6,4.7,15.7,4.7,15.8z"/>
	</g>
	<g>
		<path fill="#FFCC00" d="M5.6,14.4C5.6,14.4,5.6,14.4,5.6,14.4C5.6,14.4,5.6,14.4,5.6,14.4z"/>
	</g>
	<g>
		<path fill="#FFCC00" d="M0.8,25.6c0.1-0.2,0.1-0.5,0.2-0.7C0.9,25.1,0.8,25.3,0.8,25.6z"/>
	</g>
	<g>
		<path fill="#FFCC00" d="M0.1,35.8c0-0.1,0-0.3,0-0.4C0.1,35.5,0.1,35.7,0.1,35.8z"/>
	</g>
	<g>
		<path fill="#FFCC00" d="M1.1,24.1c0-0.1,0.1-0.3,0.1-0.4C1.2,23.8,1.2,23.9,1.1,24.1z"/>
	</g>
	<g>
		<path fill="#FFCC00" d="M0.3,37.2c0-0.1,0-0.3-0.1-0.4C0.3,36.9,0.3,37.1,0.3,37.2z"/>
	</g>
	<g>
		<path fill="#FFCC00" d="M0.8,39.9c-0.1-0.5-0.2-1.1-0.3-1.6C0.6,38.9,0.7,39.4,0.8,39.9z"/>
	</g>
	<g>
		<path fill="#FFCC00" d="M4.9,49.8c-0.3-0.4-0.5-0.9-0.8-1.3C4.4,49,4.6,49.4,4.9,49.8z"/>
	</g>
	<g>
	</g>
	<g>
	</g>
	<g>
	</g>
	<g>
	</g>
</g>
<g id="FR_baseline_blauw" display="none">
	<text transform="matrix(1 0 0 1 4.5749 90.6188)" display="inline" fill="#003A5D" font-family="'Campton-Book'" font-size="12">votre allié en mobilité</text>
</g>
<g id="NL_baseline_blauw" display="none">
</g>
<g id="Bijstand_FR__x28_assistance_x29_" display="none">
	<g display="inline">
		<polygon fill="#FFCC00" points="61.5,74.3 5.9,74.3 5.9,71.1 60.5,71.1 		"/>
	</g>
	
		<text transform="matrix(1 0 0 1 61.8388 75.9749)" display="inline" fill="#003A5D" font-family="'Campton-ExtraBold'" font-size="9.9863">assistance</text>
</g>
<g id="Bijstand_NL">
	<g>
		<polygon fill="#FFCC00" points="75.7,74.3 5.9,74.3 5.9,71.1 74.7,71.1 		"/>
	</g>
	<g>
		<path fill="#003A5D" d="M84.6,74.1c0,1.1-0.9,1.9-2.4,1.9h-3.7v-6.8h3.4c1.5,0,2.4,0.7,2.4,1.8c0,0.6-0.3,1.3-0.9,1.5
			C84.2,72.7,84.6,73.4,84.6,74.1z M80.5,71.9h1.1c0.5,0,0.8-0.2,0.8-0.6c0-0.4-0.3-0.5-0.8-0.5h-1.1V71.9z M81.8,74.4
			c0.6,0,0.8-0.2,0.8-0.6c0-0.4-0.3-0.5-0.8-0.5h-1.3v1.1H81.8z"/>
		<path fill="#003A5D" d="M87.4,76h-2v-6.8h2V76z"/>
		<path fill="#003A5D" d="M93.8,73.1c0,1.9-1.1,3-2.9,3c-1.7,0-2.8-1-2.9-2.7h2c0,0.6,0.4,0.9,0.9,0.9c0.6,0,0.9-0.4,0.9-1.2v-4h2
			V73.1z"/>
		<path fill="#003A5D" d="M100.5,71.3h-2c-0.1-0.4-0.3-0.8-0.9-0.8c-0.4,0-0.7,0.2-0.7,0.5c0,0.3,0.2,0.4,0.6,0.5l1.1,0.3
			c1.1,0.3,2,0.8,2,2c0,1.4-1.2,2.3-3,2.3c-1.4,0-3-0.6-3.2-2.5h2.1c0.1,0.5,0.5,0.8,1.1,0.8c0.5,0,0.7-0.2,0.7-0.5
			c0-0.2-0.1-0.4-0.5-0.5l-1.1-0.3c-1.3-0.3-2-0.9-2-1.9c0-1.4,1.1-2.3,2.8-2.3C98.5,69,100.3,69.4,100.5,71.3z"/>
		<path fill="#003A5D" d="M104.9,70.9v5h-2v-5h-2v-1.7h6v1.7H104.9z"/>
		<path fill="#003A5D" d="M108.6,75l-0.3,1h-2.1l2.8-6.8h2l2.8,6.8h-2.1l-0.4-1H108.6z M109.9,71.4l-0.7,1.9h1.4L109.9,71.4z"/>
		<path fill="#003A5D" d="M120.6,76h-1.6l-2.8-3.2V76h-2v-6.8h1.6l2.8,3.3v-3.3h2V76z"/>
		<path fill="#003A5D" d="M124.5,69.2c2.2,0,3.7,1.3,3.7,3.4c0,2.1-1.5,3.4-3.7,3.4h-2.9v-6.8H124.5z M124.5,74.2
			c0.9,0,1.6-0.7,1.6-1.6c0-0.9-0.7-1.6-1.6-1.6h-0.8v3.2H124.5z"/>
	</g>
</g>
<g id="Banden_NL" display="none">
	<g display="inline">
		<polygon fill="#FFCC00" points="82.7,74.3 5.9,74.3 5.9,71.1 81.7,71.1 		"/>
	</g>
	<g display="inline">
		<path fill="#003A5D" d="M92.6,74.1c0,1.1-0.9,1.9-2.4,1.9h-3.7v-6.8h3.4c1.5,0,2.4,0.7,2.4,1.8c0,0.6-0.3,1.3-0.9,1.5
			C92.1,72.7,92.6,73.4,92.6,74.1z M88.5,71.9h1.1c0.5,0,0.8-0.2,0.8-0.6c0-0.4-0.3-0.5-0.8-0.5h-1.1V71.9z M89.7,74.4
			c0.6,0,0.8-0.2,0.8-0.6c0-0.4-0.3-0.5-0.8-0.5h-1.3v1.1H89.7z"/>
		<path fill="#003A5D" d="M95.1,75l-0.3,1h-2.1l2.8-6.8h2l2.8,6.8H98l-0.4-1H95.1z M96.4,71.4l-0.7,1.9h1.4L96.4,71.4z"/>
		<path fill="#003A5D" d="M107.1,76h-1.6l-2.8-3.2V76h-2v-6.8h1.6l2.8,3.3v-3.3h2V76z"/>
		<path fill="#003A5D" d="M111,69.2c2.2,0,3.7,1.3,3.7,3.4c0,2.1-1.5,3.4-3.7,3.4h-2.9v-6.8H111z M111,74.2c0.9,0,1.6-0.7,1.6-1.6
			c0-0.9-0.7-1.6-1.6-1.6h-0.8v3.2H111z"/>
		<path fill="#003A5D" d="M117.5,71.8h2.8v1.6h-2.8v0.9h3.3V76h-5.3v-6.8h5.3v1.7h-3.3V71.8z"/>
		<path fill="#003A5D" d="M128,76h-1.6l-2.8-3.2V76h-2v-6.8h1.6l2.8,3.3v-3.3h2V76z"/>
	</g>
</g>
<g id="Tweedehands_NL" display="none">
	<g display="inline">
		<polygon fill="#FFCC00" points="46.7,74.3 5.9,74.3 5.9,71.1 45.7,71.1 		"/>
	</g>
	<g display="inline">
		<path fill="#003A5D" d="M53.4,70.9v5h-2v-5h-2v-1.7h6v1.7H53.4z"/>
		<path fill="#003A5D" d="M64.1,76h-1.9L61,72.1L59.7,76h-1.9l-2.1-6.8h2.1l1.1,3.7l1.3-3.7h1.6l1.3,3.7l1.1-3.7h2.1L64.1,76z"/>
		<path fill="#003A5D" d="M68.9,71.8h2.8v1.6h-2.8v0.9h3.3V76h-5.3v-6.8h5.3v1.7h-3.3V71.8z"/>
		<path fill="#003A5D" d="M74.9,71.8h2.8v1.6h-2.8v0.9h3.3V76h-5.3v-6.8h5.3v1.7h-3.3V71.8z"/>
		<path fill="#003A5D" d="M81.9,69.2c2.2,0,3.7,1.3,3.7,3.4c0,2.1-1.5,3.4-3.7,3.4H79v-6.8H81.9z M81.9,74.2c0.9,0,1.6-0.7,1.6-1.6
			c0-0.9-0.7-1.6-1.6-1.6H81v3.2H81.9z"/>
		<path fill="#003A5D" d="M88.4,71.8h2.8v1.6h-2.8v0.9h3.3V76h-5.3v-6.8h5.3v1.7h-3.3V71.8z"/>
		<path fill="#003A5D" d="M98.9,76h-2v-2.4h-2.4V76h-2v-6.8h2v2.6h2.4v-2.6h2V76z"/>
		<path fill="#003A5D" d="M101.9,75l-0.3,1h-2.1l2.8-6.8h2L107,76h-2.1l-0.4-1H101.9z M103.2,71.4l-0.7,1.9h1.4L103.2,71.4z"/>
		<path fill="#003A5D" d="M114,76h-1.6l-2.8-3.2V76h-2v-6.8h1.6l2.8,3.3v-3.3h2V76z"/>
		<path fill="#003A5D" d="M117.9,69.2c2.2,0,3.7,1.3,3.7,3.4c0,2.1-1.5,3.4-3.7,3.4H115v-6.8H117.9z M117.9,74.2
			c0.9,0,1.6-0.7,1.6-1.6c0-0.9-0.7-1.6-1.6-1.6H117v3.2H117.9z"/>
		<path fill="#003A5D" d="M128.1,71.3h-2c-0.1-0.4-0.3-0.8-0.9-0.8c-0.4,0-0.7,0.2-0.7,0.5c0,0.3,0.2,0.4,0.6,0.5l1.1,0.3
			c1.1,0.3,2,0.8,2,2c0,1.4-1.2,2.3-3,2.3c-1.4,0-3-0.6-3.2-2.5h2.1c0.1,0.5,0.5,0.8,1.1,0.8c0.5,0,0.7-0.2,0.7-0.5
			c0-0.2-0.1-0.4-0.5-0.5l-1.1-0.3c-1.3-0.3-2-0.9-2-1.9c0-1.4,1.1-2.3,2.8-2.3C126.1,69,127.9,69.4,128.1,71.3z"/>
	</g>
</g>
<g id="Rijschool_NL" display="none">
	<g display="inline">
		<polygon fill="#FFCC00" points="65.7,74.3 5.9,74.3 5.9,71.1 64.7,71.1 		"/>
	</g>
	<g display="inline">
		<path fill="#003A5D" d="M72.1,74.2L72.1,74.2H71V76h-2v-6.8H72c1.8,0,3,0.9,3,2.5c0,0.8-0.3,1.5-1,2l1.5,2.3h-2.3L72.1,74.2z
			 M72,72.4c0.5,0,1-0.3,1-0.8c0-0.4-0.4-0.7-1-0.7h-1v1.5H72z"/>
		<path fill="#003A5D" d="M77.9,76h-2v-6.8h2V76z"/>
		<path fill="#003A5D" d="M84.3,73.1c0,1.9-1.1,3-2.9,3c-1.7,0-2.8-1-2.9-2.7h2c0.1,0.6,0.4,0.9,0.9,0.9c0.6,0,0.9-0.4,0.9-1.2v-4h2
			V73.1z"/>
		<path fill="#003A5D" d="M91,71.3h-2c-0.1-0.4-0.3-0.8-0.9-0.8c-0.4,0-0.7,0.2-0.7,0.5c0,0.3,0.2,0.4,0.6,0.5l1.1,0.3
			c1.1,0.3,2,0.8,2,2c0,1.4-1.2,2.3-3,2.3c-1.4,0-3-0.6-3.2-2.5H87c0.1,0.5,0.5,0.8,1.1,0.8c0.5,0,0.7-0.2,0.7-0.5
			c0-0.2-0.1-0.4-0.5-0.5l-1.1-0.3c-1.3-0.3-2-0.9-2-1.9c0-1.4,1.1-2.3,2.8-2.3C89.1,69,90.8,69.4,91,71.3z"/>
		<path fill="#003A5D" d="M96.7,73.1h2.1c-0.1,1.8-1.5,3.1-3.5,3.1c-2.1,0-3.7-1.5-3.7-3.5c0-2,1.5-3.5,3.7-3.5c2,0,3.4,1.3,3.5,3.1
			h-2.1c-0.1-0.7-0.6-1.2-1.4-1.2c-1,0-1.6,0.7-1.6,1.7c0,0.9,0.6,1.7,1.6,1.7C96.1,74.3,96.6,73.8,96.7,73.1z"/>
		<path fill="#003A5D" d="M106.1,76h-2v-2.4h-2.4V76h-2v-6.8h2v2.6h2.4v-2.6h2V76z"/>
		<path fill="#003A5D" d="M114.2,72.6c0,2-1.5,3.5-3.7,3.5s-3.7-1.5-3.7-3.5s1.5-3.5,3.7-3.5S114.2,70.6,114.2,72.6z M112.2,72.6
			c0-0.9-0.7-1.7-1.6-1.7s-1.6,0.8-1.6,1.7c0,0.9,0.7,1.7,1.6,1.7S112.2,73.5,112.2,72.6z"/>
		<path fill="#003A5D" d="M122.3,72.6c0,2-1.5,3.5-3.7,3.5c-2.1,0-3.7-1.5-3.7-3.5s1.5-3.5,3.7-3.5C120.7,69,122.3,70.6,122.3,72.6z
			 M120.2,72.6c0-0.9-0.7-1.7-1.6-1.7c-0.9,0-1.6,0.8-1.6,1.7c0,0.9,0.7,1.7,1.6,1.7C119.5,74.2,120.2,73.5,120.2,72.6z"/>
		<path fill="#003A5D" d="M128.3,76h-5.2v-6.8h2v5h3.2V76z"/>
	</g>
</g>
<g id="Diagnose_NL" display="none">
	<g display="inline">
		<polygon fill="#FFCC00" points="72.7,74.3 5.9,74.3 5.9,71.1 71.7,71.1 		"/>
	</g>
	<g display="inline">
		<path fill="#003A5D" d="M78.2,69.2c2.2,0,3.7,1.3,3.7,3.4c0,2.1-1.5,3.4-3.7,3.4h-2.9v-6.8H78.2z M78.2,74.2
			c0.9,0,1.6-0.7,1.6-1.6c0-0.9-0.7-1.6-1.6-1.6h-0.8v3.2H78.2z"/>
		<path fill="#003A5D" d="M84.7,76h-2v-6.8h2V76z"/>
		<path fill="#003A5D" d="M87.7,75l-0.3,1h-2.1l2.8-6.8h2l2.8,6.8h-2.1l-0.4-1H87.7z M89,71.4l-0.7,1.9h1.4L89,71.4z"/>
		<path fill="#003A5D" d="M99.9,76h-1.5l0-0.6c-0.5,0.5-1.2,0.8-2,0.8c-2.2,0-3.7-1.5-3.7-3.5c0-2.1,1.5-3.6,3.7-3.6
			c1.9,0,3.3,1.1,3.5,2.6h-2.1c-0.2-0.6-0.7-0.8-1.3-0.8c-1,0-1.7,0.7-1.7,1.7c0,1,0.7,1.7,1.8,1.7c0.6,0,1.1-0.2,1.5-0.7l-1.9,0
			v-1.4h3.7V76z"/>
		<path fill="#003A5D" d="M107.3,76h-1.6l-2.8-3.2V76h-2v-6.8h1.6l2.8,3.3v-3.3h2V76z"/>
		<path fill="#003A5D" d="M115.5,72.6c0,2-1.5,3.5-3.7,3.5c-2.1,0-3.7-1.5-3.7-3.5s1.5-3.5,3.7-3.5C114,69,115.5,70.6,115.5,72.6z
			 M113.5,72.6c0-0.9-0.7-1.7-1.6-1.7c-0.9,0-1.6,0.8-1.6,1.7c0,0.9,0.7,1.7,1.6,1.7C112.8,74.2,113.5,73.5,113.5,72.6z"/>
		<path fill="#003A5D" d="M122,71.3h-2c-0.1-0.4-0.3-0.8-0.9-0.8c-0.4,0-0.7,0.2-0.7,0.5c0,0.3,0.2,0.4,0.6,0.5l1.1,0.3
			c1.1,0.3,2,0.8,2,2c0,1.4-1.2,2.3-3,2.3c-1.4,0-3-0.6-3.2-2.5h2.1c0.1,0.5,0.5,0.8,1.1,0.8c0.5,0,0.7-0.2,0.7-0.5
			c0-0.2-0.1-0.4-0.5-0.5l-1.1-0.3c-1.3-0.3-2-0.9-2-1.9c0-1.4,1.1-2.3,2.8-2.3C120.1,69,121.9,69.4,122,71.3z"/>
		<path fill="#003A5D" d="M124.9,71.8h2.8v1.6h-2.8v0.9h3.3V76h-5.3v-6.8h5.3v1.7h-3.3V71.8z"/>
	</g>
</g>
<g id="Fleet_Services_NL" display="none">
	<g display="inline">
		<polygon fill="#FFCC00" points="42.7,74.3 5.9,74.3 5.9,71.1 41.7,71.1 		"/>
	</g>
	<g display="inline">
		<path fill="#003A5D" d="M47.6,72h2.7v1.7h-2.7V76h-2v-6.8h5.2v1.7h-3.2V72z"/>
		<path fill="#003A5D" d="M56.6,76h-5.2v-6.8h2v5h3.2V76z"/>
		<path fill="#003A5D" d="M59.3,71.8h2.8v1.6h-2.8v0.9h3.3V76h-5.3v-6.8h5.3v1.7h-3.3V71.8z"/>
		<path fill="#003A5D" d="M65.4,71.8h2.8v1.6h-2.8v0.9h3.3V76h-5.3v-6.8h5.3v1.7h-3.3V71.8z"/>
		<path fill="#003A5D" d="M73.1,70.9v5h-2v-5h-2v-1.7h6v1.7H73.1z"/>
		<path fill="#003A5D" d="M84.2,71.3h-2c-0.1-0.4-0.3-0.8-0.9-0.8c-0.4,0-0.7,0.2-0.7,0.5c0,0.3,0.2,0.4,0.6,0.5l1.1,0.3
			c1.1,0.3,2,0.8,2,2c0,1.4-1.2,2.3-3,2.3c-1.4,0-3-0.6-3.2-2.5h2.1c0.1,0.5,0.5,0.8,1.1,0.8c0.5,0,0.7-0.2,0.7-0.5
			c0-0.2-0.1-0.4-0.5-0.5l-1.1-0.3c-1.3-0.3-2-0.9-2-1.9c0-1.4,1.1-2.3,2.8-2.3C82.3,69,84,69.4,84.2,71.3z"/>
		<path fill="#003A5D" d="M87.1,71.8h2.8v1.6h-2.8v0.9h3.3V76h-5.3v-6.8h5.3v1.7h-3.3V71.8z"/>
		<path fill="#003A5D" d="M94.3,74.2L94.3,74.2h-1.1V76h-2v-6.8h3.1c1.8,0,3,0.9,3,2.5c0,0.8-0.3,1.5-1,2l1.5,2.3h-2.3L94.3,74.2z
			 M94.2,72.4c0.5,0,1-0.3,1-0.8c0-0.4-0.4-0.7-1-0.7h-1v1.5H94.2z"/>
		<path fill="#003A5D" d="M102.1,76H100l-2.8-6.8h2.2l1.7,4.2l1.7-4.2h2.2L102.1,76z"/>
		<path fill="#003A5D" d="M107.4,76h-2v-6.8h2V76z"/>
		<path fill="#003A5D" d="M113.3,73.1h2.1c-0.1,1.8-1.5,3.1-3.5,3.1c-2.1,0-3.7-1.5-3.7-3.5c0-2,1.5-3.5,3.7-3.5
			c2,0,3.4,1.3,3.5,3.1h-2.1c-0.1-0.7-0.6-1.2-1.4-1.2c-1,0-1.6,0.7-1.6,1.7c0,0.9,0.6,1.7,1.6,1.7
			C112.7,74.3,113.2,73.8,113.3,73.1z"/>
		<path fill="#003A5D" d="M118.3,71.8h2.8v1.6h-2.8v0.9h3.3V76h-5.3v-6.8h5.3v1.7h-3.3V71.8z"/>
		<path fill="#003A5D" d="M128.1,71.3h-2c-0.1-0.4-0.3-0.8-0.9-0.8c-0.4,0-0.7,0.2-0.7,0.5c0,0.3,0.2,0.4,0.6,0.5l1.1,0.3
			c1.1,0.3,2,0.8,2,2c0,1.4-1.2,2.3-3,2.3c-1.4,0-3-0.6-3.2-2.5h2.1c0.1,0.5,0.5,0.8,1.1,0.8c0.5,0,0.7-0.2,0.7-0.5
			c0-0.2-0.1-0.4-0.5-0.5l-1.1-0.3c-1.3-0.3-2-0.9-2-1.9c0-1.4,1.1-2.3,2.8-2.3C126.1,69,127.9,69.4,128.1,71.3z"/>
	</g>
</g>
<g id="Telematics_NL" display="none">
	<g display="inline">
		<polygon fill="#FFCC00" points="62.7,74.3 5.9,74.3 5.9,71.1 61.7,71.1 		"/>
	</g>
	<g display="inline">
		<path fill="#003A5D" d="M69.2,70.9v5h-2v-5h-2v-1.7h6v1.7H69.2z"/>
		<path fill="#003A5D" d="M73.9,71.8h2.8v1.6h-2.8v0.9h3.3V76h-5.3v-6.8h5.3v1.7h-3.3V71.8z"/>
		<path fill="#003A5D" d="M83.2,76h-5.2v-6.8h2v5h3.2V76z"/>
		<path fill="#003A5D" d="M85.9,71.8h2.8v1.6h-2.8v0.9h3.3V76h-5.3v-6.8h5.3v1.7h-3.3V71.8z"/>
		<path fill="#003A5D" d="M97.5,76h-2v-3l-1.2,1.9v0h-1.1v0l-1.3-1.9l0,3h-2v-6.8h1.5l2.2,3.2l2.2-3.2h1.5V76z"/>
		<path fill="#003A5D" d="M100.6,75l-0.3,1h-2.1l2.8-6.8h2l2.8,6.8h-2.1l-0.4-1H100.6z M101.9,71.4l-0.7,1.9h1.4L101.9,71.4z"/>
		<path fill="#003A5D" d="M108.9,70.9v5h-2v-5h-2v-1.7h6v1.7H108.9z"/>
		<path fill="#003A5D" d="M113.5,76h-2v-6.8h2V76z"/>
		<path fill="#003A5D" d="M119.5,73.1h2.1c-0.1,1.8-1.5,3.1-3.5,3.1c-2.1,0-3.7-1.5-3.7-3.5c0-2,1.5-3.5,3.7-3.5
			c2,0,3.4,1.3,3.5,3.1h-2.1c-0.1-0.7-0.6-1.2-1.4-1.2c-1,0-1.6,0.7-1.6,1.7c0,0.9,0.6,1.7,1.6,1.7
			C118.8,74.3,119.3,73.8,119.5,73.1z"/>
		<path fill="#003A5D" d="M128.1,71.3h-2c-0.1-0.4-0.3-0.8-0.9-0.8c-0.4,0-0.7,0.2-0.7,0.5c0,0.3,0.2,0.4,0.6,0.5l1.1,0.3
			c1.1,0.3,2,0.8,2,2c0,1.4-1.2,2.3-3,2.3c-1.4,0-3-0.6-3.2-2.5h2.1c0.1,0.5,0.5,0.8,1.1,0.8c0.5,0,0.7-0.2,0.7-0.5
			c0-0.2-0.1-0.4-0.5-0.5l-1.1-0.3c-1.3-0.3-2-0.9-2-1.9c0-1.4,1.1-2.3,2.8-2.3C126.1,69,127.9,69.4,128.1,71.3z"/>
	</g>
</g>
<g id="Training__x26__Consult_NL" display="none">
	<g display="inline">
		<polygon fill="#FFCC00" points="22.7,74.3 5.9,74.3 5.9,71.1 21.7,71.1 		"/>
	</g>
	<g display="inline">
		<path fill="#003A5D" d="M28.8,71.2V76h-1.9v-4.8h-1.9v-1.7h5.8v1.7H28.8z"/>
		<path fill="#003A5D" d="M34.2,74.3L34.2,74.3h-1.1V76h-1.9v-6.5h2.9c1.7,0,2.8,0.9,2.8,2.3c0,0.8-0.3,1.4-0.9,1.9l1.4,2.2h-2.2
			L34.2,74.3z M34.1,72.6c0.5,0,0.9-0.3,0.9-0.7c0-0.4-0.4-0.7-0.9-0.7h-1v1.4H34.1z"/>
		<path fill="#003A5D" d="M39.9,75.1L39.5,76h-2l2.7-6.5h1.9l2.7,6.5h-2l-0.3-0.9H39.9z M41.1,71.7l-0.7,1.8h1.3L41.1,71.7z"/>
		<path fill="#003A5D" d="M47.1,76h-1.9v-6.5h1.9V76z"/>
		<path fill="#003A5D" d="M54,76h-1.5l-2.7-3.1V76h-1.9v-6.5h1.5l2.7,3.1v-3.1H54V76z"/>
		<path fill="#003A5D" d="M56.8,76h-1.9v-6.5h1.9V76z"/>
		<path fill="#003A5D" d="M63.7,76h-1.5l-2.7-3.1V76h-1.9v-6.5h1.5l2.7,3.1v-3.1h1.9V76z"/>
		<path fill="#003A5D" d="M71.3,76h-1.4l0-0.6c-0.5,0.5-1.1,0.7-1.9,0.7c-2.1,0-3.5-1.4-3.5-3.3c0-2,1.5-3.4,3.5-3.4
			c1.8,0,3.2,1,3.3,2.5h-2c-0.2-0.6-0.7-0.8-1.3-0.8c-1,0-1.6,0.7-1.6,1.6c0,1,0.7,1.7,1.7,1.7c0.6,0,1.1-0.2,1.4-0.7l-1.8,0v-1.3
			h3.6V76z"/>
		<path fill="#003A5D" d="M78.5,75.7c-0.5,0.3-1.1,0.4-1.9,0.4c-1.5,0-2.5-0.8-2.5-2c0-0.8,0.5-1.4,1.1-1.7
			c-0.2-0.4-0.4-0.7-0.4-1.1c0-1,0.8-1.9,2.3-1.9c1.4,0,2.2,0.8,2.3,2.1h-1.6c0-0.4-0.2-0.6-0.6-0.6c-0.3,0-0.5,0.2-0.5,0.5
			s0.2,0.5,0.6,0.9l1.1,1.1l0.6-1h1.9l-1.3,2.1l1.5,1.5h-2.3L78.5,75.7z M77.3,74.5l-0.7-0.6c-0.2-0.2-0.3-0.3-0.5-0.4
			c-0.2,0.1-0.3,0.3-0.3,0.5c0,0.4,0.4,0.7,0.8,0.7C76.9,74.6,77.1,74.6,77.3,74.5z"/>
		<path fill="#003A5D" d="M88.1,73.2h2c-0.1,1.7-1.4,2.9-3.3,2.9c-2,0-3.5-1.4-3.5-3.4s1.4-3.4,3.5-3.4c1.9,0,3.2,1.2,3.3,2.9h-2
			c-0.1-0.7-0.6-1.2-1.4-1.2c-0.9,0-1.5,0.7-1.5,1.6c0,0.9,0.6,1.6,1.5,1.6C87.5,74.3,88,73.9,88.1,73.2z"/>
		<path fill="#003A5D" d="M97.6,72.7c0,1.9-1.4,3.4-3.5,3.4s-3.5-1.5-3.5-3.4c0-1.9,1.4-3.4,3.5-3.4S97.6,70.8,97.6,72.7z
			 M95.6,72.7c0-0.8-0.6-1.6-1.5-1.6s-1.5,0.7-1.5,1.6c0,0.8,0.6,1.6,1.5,1.6S95.6,73.6,95.6,72.7z"/>
		<path fill="#003A5D" d="M104.4,76h-1.5l-2.7-3.1V76h-1.9v-6.5h1.5l2.7,3.1v-3.1h1.9V76z"/>
		<path fill="#003A5D" d="M110.9,71.6h-1.9c-0.1-0.4-0.3-0.8-0.9-0.8c-0.4,0-0.7,0.2-0.7,0.5c0,0.3,0.2,0.4,0.6,0.5L109,72
			c1.1,0.3,1.9,0.8,1.9,1.9c0,1.3-1.1,2.2-2.8,2.2c-1.3,0-2.8-0.5-3-2.3h2c0.1,0.5,0.5,0.8,1.1,0.8c0.4,0,0.7-0.2,0.7-0.4
			c0-0.2-0.1-0.4-0.5-0.5l-1.1-0.3c-1.3-0.3-1.9-0.8-1.9-1.9c0-1.4,1.1-2.2,2.7-2.2C109,69.4,110.7,69.7,110.9,71.6z"/>
		<path fill="#003A5D" d="M117.8,72.8c0,2.1-1.2,3.3-3.1,3.3c-2,0-3.1-1.2-3.1-3.3v-3.3h1.9v3.4c0,0.9,0.4,1.4,1.2,1.4
			c0.7,0,1.2-0.5,1.2-1.4v-3.4h1.9V72.8z"/>
		<path fill="#003A5D" d="M123.5,76h-5v-6.5h1.9v4.8h3.1V76z"/>
		<path fill="#003A5D" d="M126.4,71.2V76h-1.9v-4.8h-1.9v-1.7h5.8v1.7H126.4z"/>
	</g>
</g>
<g id="Media_NL" display="none">
	<g display="inline">
		<polygon fill="#FFCC00" points="92.7,74.3 5.9,74.3 5.9,71.1 91.7,71.1 		"/>
	</g>
	<g display="inline">
		<path fill="#003A5D" d="M103.8,76h-2v-3l-1.2,1.9v0h-1.1v0l-1.3-1.9l0,3h-2v-6.8h1.5l2.2,3.2l2.2-3.2h1.5V76z"/>
		<path fill="#003A5D" d="M106.8,71.8h2.8v1.6h-2.8v0.9h3.3V76h-5.3v-6.8h5.3v1.7h-3.3V71.8z"/>
		<path fill="#003A5D" d="M113.8,69.2c2.2,0,3.7,1.3,3.7,3.4c0,2.1-1.5,3.4-3.7,3.4h-2.9v-6.8H113.8z M113.8,74.2
			c0.9,0,1.6-0.7,1.6-1.6c0-0.9-0.7-1.6-1.6-1.6h-0.8v3.2H113.8z"/>
		<path fill="#003A5D" d="M120.3,76h-2v-6.8h2V76z"/>
		<path fill="#003A5D" d="M123.3,75l-0.3,1h-2.1l2.8-6.8h2l2.8,6.8h-2.1l-0.4-1H123.3z M124.6,71.4l-0.7,1.9h1.4L124.6,71.4z"/>
	</g>
</g>
</svg>
